<svg xmlns="http://www.w3.org/2000/svg" viewBox="0 0 960 720" fill="none" aria-hidden="true">
  <defs>
    <linearGradient id="bg" x1="0" y1="0" x2="1" y2="1">
      <stop offset="0%" stop-color="#131920"/>
      <stop offset="100%" stop-color="#0a0e14"/>
    </linearGradient>
  </defs>
  <rect width="960" height="720" fill="url(#bg)"/>
  <!-- chassis -->
  <rect x="280" y="120" width="400" height="480" rx="28" fill="#161d26" stroke="#334155" stroke-width="2"/>
  <rect x="300" y="150" width="360" height="280" rx="12" fill="#0a0e14" stroke="#f97316" stroke-width="1.5" stroke-opacity="0.6"/>
  <!-- three modules -->
  <rect x="318" y="172" width="92" height="64" rx="6" fill="rgba(249,115,22,0.2)" stroke="#f97316"/>
  <rect x="424" y="172" width="92" height="64" rx="6" fill="rgba(34,197,94,0.15)" stroke="#22c55e" stroke-opacity="0.7"/>
  <rect x="530" y="172" width="92" height="64" rx="6" fill="rgba(56,189,248,0.15)" stroke="#38bdf8" stroke-opacity="0.7"/>
  <rect x="318" y="252" width="304" height="10" rx="2" fill="#334155"/>
  <rect x="318" y="272" width="240" height="10" rx="2" fill="#2d3748"/>
  <rect x="318" y="292" width="280" height="10" rx="2" fill="#2d3748"/>
  <!-- SSD bay -->
  <rect x="320" y="460" width="120" height="56" rx="6" fill="#1e293b" stroke="#475569"/>
  <rect x="332" y="472" width="96" height="14" rx="2" fill="#334155"/>
  <text x="380" y="514" text-anchor="middle" fill="#64748b" font-family="system-ui,sans-serif" font-size="10">M.2</text>
  <!-- ports row -->
  <rect x="460" y="468" width="36" height="28" rx="4" fill="#0f172a" stroke="#64748b"/>
  <rect x="508" y="472" width="48" height="20" rx="3" fill="#0f172a" stroke="#64748b"/>
  <circle cx="568" cy="482" r="8" fill="#0f172a" stroke="#64748b"/>
  <!-- LEDs -->
  <circle cx="620" cy="476" r="4" fill="#22c55e" opacity="0.85"/>
  <circle cx="640" cy="476" r="4" fill="#38bdf8" opacity="0.7"/>
  <circle cx="660" cy="476" r="4" fill="#f97316" opacity="0.6"/>
  <text x="620" y="510" text-anchor="start" fill="#64748b" font-family="system-ui,sans-serif" font-size="9">WiFi · Sync</text>
</svg>
