<svg xmlns="http://www.w3.org/2000/svg" viewBox="0 0 960 720" fill="none" aria-hidden="true">
  <defs>
    <linearGradient id="desk" x1="0.5" y1="0" x2="0.5" y2="1">
      <stop offset="0%" stop-color="#161d26"/>
      <stop offset="100%" stop-color="#0a0e14"/>
    </linearGradient>
  </defs>
  <rect width="960" height="720" fill="#0a0e14"/>
  <rect x="0" y="480" width="960" height="240" fill="url(#desk)"/>
  <rect x="80" y="500" width="800" height="8" rx="2" fill="#1e293b"/>
  <!-- laptop -->
  <rect x="200" y="360" width="280" height="18" rx="3" fill="#334155"/>
  <rect x="220" y="260" width="240" height="150" rx="6" fill="#131920" stroke="#475569"/>
  <rect x="232" y="272" width="216" height="120" rx="2" fill="#0f172a"/>
  <rect x="240" y="290" width="80" height="6" rx="1" fill="#f97316" opacity="0.4"/>
  <rect x="240" y="304" width="120" height="6" rx="1" fill="#334155"/>
  <!-- device -->
  <rect x="520" y="240" width="200" height="280" rx="16" fill="#161d26" stroke="#f97316" stroke-width="1.5" stroke-opacity="0.55"/>
  <rect x="536" y="258" width="168" height="200" rx="8" fill="#0a0e14" stroke="#2d3748"/>
  <rect x="548" y="272" width="48" height="36" rx="4" fill="rgba(249,115,22,0.22)" stroke="#f97316"/>
  <rect x="604" y="272" width="48" height="36" rx="4" fill="rgba(34,197,94,0.18)" stroke="#22c55e" stroke-opacity="0.7"/>
  <rect x="660" y="272" width="32" height="36" rx="4" fill="rgba(56,189,248,0.18)" stroke="#38bdf8" stroke-opacity="0.7"/>
  <rect x="548" y="320" width="144" height="8" rx="2" fill="#334155"/>
  <rect x="548" y="336" width="100" height="8" rx="2" fill="#2d3748"/>
  <!-- keyboard hint -->
  <rect x="640" y="400" width="140" height="56" rx="4" fill="#1e293b" stroke="#334155" opacity="0.9"/>
  <rect x="652" y="412" width="12" height="12" rx="1" fill="#475569"/>
  <rect x="670" y="412" width="12" height="12" rx="1" fill="#475569"/>
  <rect x="688" y="412" width="12" height="12" rx="1" fill="#475569"/>
  <!-- nameplate -->
  <rect x="720" y="320" width="160" height="48" rx="4" fill="#161d26" stroke="#334155"/>
  <text x="800" y="342" text-anchor="middle" fill="#94a3b8" font-family="system-ui,sans-serif" font-size="11" font-weight="600">Media Lab</text>
  <text x="800" y="358" text-anchor="middle" fill="#64748b" font-family="system-ui,sans-serif" font-size="9">HydraQuant · Research</text>
</svg>
