<svg xmlns="http://www.w3.org/2000/svg">
  <!-- Brand-style marks for Works with row (approximate shapes; iMessage = generic message bubbles). -->
  <symbol id="im-discord" viewBox="0 0 24 24">
    <path fill="#5865F2" d="M20.317 4.37a19.79 19.79 0 0 0-4.885-1.515.074.074 0 0 0-.079.037c-.21.375-.444.864-.608 1.25a18.27 18.27 0 0 0-5.487 0 12.64 12.64 0 0 0-.617-1.25.077.077 0 0 0-.079-.037A19.74 19.74 0 0 0 3.677 4.37a.07.07 0 0 0-.032.027C.533 9.046-.32 13.58.099 18.057a.082.082 0 0 0 .031.057 19.9 19.9 0 0 0 5.993 3.03.078.078 0 0 0 .084-.028 21.7 21.7 0 0 0 1.226-1.994.077.077 0 0 0-.041-.106 13.11 13.11 0 0 1-1.872-.892.077.077 0 0 1-.008-.128 10.2 10.2 0 0 0 .372-.292.074.074 0 0 1 .077-.01c3.928 1.793 8.18 1.793 12.062 0a.074.074 0 0 1 .078.01c.12.098.246.198.373.292a.077.077 0 0 1-.006.127 12.3 12.3 0 0 1-1.873.892.077.077 0 0 0-.041.107c.36.698.772 1.362 1.225 1.993a.076.076 0 0 0 .084.028 19.84 19.84 0 0 0 6.002-3.03.077.077 0 0 0 .032-.054c.5-5.177-.838-9.674-3.549-13.66a.061.061 0 0 0-.031-.03zM8.02 15.33c-1.183 0-2.157-1.085-2.157-2.419 0-1.333.956-2.419 2.157-2.419 1.21 0 2.176 1.096 2.157 2.42 0 1.333-.956 2.418-2.157 2.418zm7.975 0c-1.183 0-2.157-1.085-2.157-2.419 0-1.333.955-2.419 2.157-2.419 1.21 0 2.176 1.096 2.157 2.42 0 1.333-.946 2.418-2.157 2.418z"/>
  </symbol>
  <symbol id="im-slack" viewBox="0 0 24 24">
    <path fill="#4A154B" d="M5.042 15.165a2.528 2.528 0 0 1-2.52 2.523A2.528 2.528 0 0 1 0 15.165a2.527 2.527 0 0 1 2.522-2.52h2.52v2.52zm1.271 0a2.527 2.527 0 0 1 2.521-2.52 2.527 2.527 0 0 1 2.521 2.52v6.313A2.528 2.528 0 0 1 8.834 24a2.528 2.528 0 0 1-2.521-2.522v-6.313zM8.834 5.042a2.528 2.528 0 0 1-2.521-2.52A2.528 2.528 0 0 1 8.834 0a2.528 2.528 0 0 1 2.521 2.522v2.52H8.834V5.042zm0 1.271a2.528 2.528 0 0 1 2.521 2.521 2.528 2.528 0 0 1-2.521 2.521H2.522A2.528 2.528 0 0 1 0 8.834a2.528 2.528 0 0 1 2.522-2.521h6.312V6.313zm10.122 2.521a2.528 2.528 0 0 1 2.522-2.521A2.528 2.528 0 0 1 24 8.834a2.528 2.528 0 0 1-2.522 2.521h-2.522V8.834zm-1.268 0a2.528 2.528 0 0 1-2.523 2.521 2.527 2.527 0 0 1-2.52-2.521V2.522A2.527 2.527 0 0 1 15.165 0a2.528 2.528 0 0 1 2.523 2.522v6.312zM15.165 18.956a2.528 2.528 0 0 1 2.523 2.522A2.528 2.528 0 0 1 15.165 24a2.527 2.527 0 0 1-2.52-2.522v-2.522h2.52v-.02zm0-1.268a2.527 2.527 0 0 1-2.52-2.523 2.526 2.526 0 0 1 2.52-2.52h6.313A2.527 2.527 0 0 1 24 15.165a2.528 2.528 0 0 1-2.522 2.523h-6.313z"/>
  </symbol>
  <symbol id="im-whatsapp" viewBox="0 0 24 24">
    <path fill="#25D366" d="M17.472 14.382c-.297-.149-1.758-.867-2.03-.967-.273-.099-.471-.148-.67.15-.197.297-.767.966-.94 1.164-.173.199-.347.223-.644.075-.297-.15-1.255-.463-2.39-1.475-.883-.788-1.48-1.761-1.653-2.059-.173-.297-.018-.458.13-.606.134-.133.298-.347.446-.52.149-.174.198-.298.298-.497.099-.198.05-.371-.025-.52-.075-.149-.669-1.612-.916-2.207-.242-.579-.487-.5-.669-.51-.173-.008-.371-.01-.57-.01-.198 0-.52.074-.792.372-.272.297-1.04 1.016-1.04 2.479 0 1.462 1.065 2.875 1.213 3.074.149.198 2.096 3.2 5.077 4.487.709.306 1.262.489 1.694.625.712.227 1.36.195 1.871.118.571-.085 1.758-.719 2.006-1.413.248-.694.248-1.289.173-1.413-.074-.124-.272-.198-.57-.347m-5.421 7.403h-.004a9.87 9.87 0 0 1-5.031-1.378l-.361-.214-3.741.982.998-3.648-.235-.374a9.86 9.86 0 0 1-1.51-5.26c.001-5.45 4.436-9.884 9.888-9.884 2.64 0 5.122 1.03 6.988 2.898a9.825 9.825 0 0 1 2.893 6.994c-.003 5.45-4.435 9.884-9.885 9.884m8.413-18.297A11.815 11.815 0 0 0 12.05 0C5.495 0 .16 5.335.157 11.892c0 2.096.547 4.142 1.588 5.945L.057 24l6.305-1.654a11.882 11.882 0 0 0 5.683 1.448h.005c6.554 0 11.89-5.335 11.893-11.893a11.821 11.821 0 0 0-3.48-8.413z"/>
  </symbol>
  <symbol id="im-imessage" viewBox="0 0 24 24">
    <path fill="#34C759" d="M3.5 5.5c0-1.1.9-2 2-2h7c1.1 0 2 .9 2 2v5.5c0 1.1-.9 2-2 2h-2.2L8 15.2V12.5H5.5c-1.1 0-2-.9-2-2V5.5z" opacity="0.95"/>
    <path fill="#0A84FF" d="M9.5 3.5h9c1.1 0 2 .9 2 2v5c0 1.1-.9 2-2 2h-2.5l-2.2 2.7V12.5H11c-1.1 0-2-.9-2-2v-7z"/>
  </symbol>
  <symbol id="im-signal" viewBox="0 0 24 24">
    <path fill="#3A76F0" d="m9.12.35.27 1.09a10.845 10.845 0 0 0-3.015 1.248l-.578-.964A11.955 11.955 0 0 1 9.12.35zm5.76 0-.27 1.09a10.845 10.845 0 0 1 3.015 1.248l.581-.964A11.955 11.955 0 0 0 14.88.35zM1.725 5.797A11.955 11.955 0 0 0 .351 9.119l1.09.27A10.845 10.845 0 0 1 2.69 6.374zm-.6 6.202a10.856 10.856 0 0 1 .122-1.63l-1.112-.168a12.043 12.043 0 0 0 0 3.596l1.112-.169A10.856 10.856 0 0 1 1.125 12zm17.078 10.275-.578-.964a10.845 10.845 0 0 1-3.011 1.247l.27 1.091a11.955 11.955 0 0 0 3.319-1.374zM22.875 12a10.856 10.856 0 0 1-.122 1.63l1.112.168a12.043 12.043 0 0 0 0-3.596l-1.112.169a10.856 10.856 0 0 1 .122 1.63zm.774 2.88-1.09-.27a10.845 10.845 0 0 1-1.248 3.015l.964.581a11.955 11.955 0 0 0 1.374-3.326zm-10.02 7.875a10.952 10.952 0 0 1-3.258 0l-.17 1.112a12.043 12.043 0 0 0 3.597 0zm7.125-4.303a10.914 10.914 0 0 1-2.304 2.302l.668.906a12.019 12.019 0 0 0 2.542-2.535zM18.45 3.245a10.914 10.914 0 0 1 2.304 2.304l.906-.675a12.019 12.019 0 0 0-2.535-2.535zM3.246 5.549A10.914 10.914 0 0 1 5.55 3.245l-.675-.906A12.019 12.019 0 0 0 2.34 4.874zm19.029.248-.964.577a10.845 10.845 0 0 1 1.247 3.011l1.091-.27a11.955 11.955 0 0 0-1.374-3.318zM10.371 1.246a10.952 10.952 0 0 1 3.258 0L13.8.134a12.043 12.043 0 0 0-3.597 0zM3.823 21.957 1.5 22.5l.542-2.323-1.095-.257-.542 2.323a1.125 1.125 0 0 0 1.352 1.352l2.321-.532zm-2.642-3.041 1.095.255.375-1.61a10.828 10.828 0 0 1-1.21-2.952l-1.09.27a11.91 11.91 0 0 0 1.106 2.852zm5.25 2.437-1.61.375.255 1.095 1.185-.275a11.91 11.91 0 0 0 2.851 1.106l.27-1.091a10.828 10.828 0 0 1-2.943-1.217zM12 2.25a9.75 9.75 0 0 0-8.25 14.938l-.938 4 4-.938A9.75 9.75 0 1 0 12 2.25z"/>
  </symbol>
  <symbol id="im-telegram" viewBox="0 0 24 24">
    <path fill="#26A5E4" d="M11.944 0A12 12 0 0 0 0 12a12 12 0 0 0 12 12 12 12 0 0 0 12-12A12 12 0 0 0 12 0a12 12 0 0 0-.056 0zm4.962 7.224c.1-.002.321.023.465.14a.506.506 0 0 1 .171.325c.016.093.036.306.02.472-.18 1.898-.962 6.502-1.36 8.627-.168.9-.499 1.201-.82 1.23-.696.065-1.225-.46-1.9-.902-1.056-.693-1.653-1.124-2.678-1.8-1.185-.78-.417-1.21.258-1.91.177-.184 3.247-2.977 3.307-3.23.007-.032.014-.15-.056-.212s-.174-.041-.249-.024c-.106.024-1.793 1.14-5.061 3.345-.48.33-.913.49-1.302.48-.428-.008-1.252-.241-1.865-.44-.752-.245-1.349-.374-1.297-.789.027-.216.325-.437.893-.663 3.498-1.524 5.831-2.529 6.998-3.014 3.332-1.386 4.025-1.627 4.476-1.635z"/>
  </symbol>
</svg>
