<svg xmlns="http://www.w3.org/2000/svg" viewBox="0 0 32 32">
  <rect width="32" height="32" rx="9" fill="#0b0e14" />
  <g transform="translate(0,0)">
    <path fill="#7a3224" d="M11.2 21.4l.85 2.05q3.95 3.35 7.9 0l.85-2.05q-2.55 1.25-4.8 1.22-2.25-.03-4.8-1.22z" />
    <path fill="#b84d32" d="M10.6 20.6l1.1 2.55q4.3 3.2 8.6 0l1.1-2.55q-2.7 1.45-5.4 1.42-2.7-.03-5.4-1.42z" />
    <ellipse cx="16" cy="15.6" rx="5.1" ry="6.6" fill="#d46845" />
    <ellipse cx="14.3" cy="12.8" rx="2.2" ry="3.8" fill="#f4c4a8" opacity="0.5" />
    <ellipse cx="16" cy="9.5" rx="4.1" ry="3.25" fill="#e88860" />
    <path
      fill="#d46845"
      d="M11.4 12.8C6.8 10.5 2.6 13.6 3.2 18.2c.5 2.9 4.2 3.3 6.8 2 1.7-1 2.7-2.6 3.1-4.3.35-1.5.25-2.85-.7-3.1z"
    />
    <path fill="#f5d4bc" opacity="0.7" d="M5.2 16.4c-.35 1.75 1.3 2.95 2.9 2.45.45-1-.95-2.6-2.9-2.45z" />
    <path
      fill="#d46845"
      d="M20.6 12.8c4.6-2.3 8.8.8 8.2 5.4-.5 2.9-4.2 3.3-6.8 2-1.7-1-2.7-2.6-3.1-4.3-.35-1.5-.25-2.85.7-3.1z"
    />
    <path fill="#f5d4bc" opacity="0.7" d="M26.8 16.4c.35 1.75-1.3 2.95-2.9 2.45-.45-1 .95-2.6 2.9-2.45z" />
    <ellipse cx="8.85" cy="19.6" rx="1.05" ry="1.75" fill="#a8422e" transform="rotate(-22 8.85 19.6)" />
    <ellipse cx="23.15" cy="19.6" rx="1.05" ry="1.75" fill="#a8422e" transform="rotate(22 23.15 19.6)" />
    <circle cx="13.55" cy="8.85" r="1.2" fill="#2a1810" />
    <circle cx="18.45" cy="8.85" r="1.2" fill="#2a1810" />
    <circle cx="13.9" cy="8.45" r="0.42" fill="#fff" opacity="0.95" />
    <circle cx="18.8" cy="8.45" r="0.42" fill="#fff" opacity="0.95" />
  </g>
</svg>
